<?xml version="1.0" standalone="no"?>
<!DOCTYPE svg PUBLIC "-//W3C//DTD SVG 20010904//EN"
 "http://www.w3.org/TR/2001/REC-SVG-20010904/DTD/svg10.dtd">
<svg version="1.0" xmlns="http://www.w3.org/2000/svg"
 width="50.000000pt" height="50.000000pt" viewBox="0 0 50.000000 50.000000"
 preserveAspectRatio="xMidYMid meet">

<g transform="translate(0.000000,50.000000) scale(0.100000,-0.100000)"
fill="#000000" stroke="none">
<path d="M38 388 c-2 -29 -2 -124 0 -210 l5 -158 207 0 207 0 5 157 c2 87 2
182 0 211 l-4 52 -208 0 -208 0 -4 -52z m402 17 c0 -13 -28 -15 -190 -15 -162
0 -190 2 -190 15 0 13 28 15 190 15 162 0 190 -2 190 -15z m-342 -82 c-3 -40
-6 -48 -23 -48 -13 0 -21 8 -23 24 -6 40 7 71 29 71 18 0 20 -5 17 -47z m70 0
c-3 -40 -6 -48 -23 -48 -17 0 -20 8 -23 48 -3 45 -2 47 23 47 25 0 26 -2 23
-47z m70 0 c-3 -40 -6 -48 -23 -48 -17 0 -20 8 -23 48 -3 45 -2 47 23 47 25 0
26 -2 23 -47z m70 0 c-3 -40 -6 -48 -23 -48 -17 0 -20 8 -23 48 -3 45 -2 47
23 47 25 0 26 -2 23 -47z m70 0 c-3 -40 -6 -48 -23 -48 -17 0 -20 8 -23 48 -3
45 -2 47 23 47 25 0 26 -2 23 -47z m68 23 c10 -41 1 -71 -21 -71 -17 0 -20 8
-23 48 -3 42 -1 47 17 47 13 0 23 -8 27 -24z m-23 -95 c15 -1 17 -13 17 -106
0 -87 -3 -105 -15 -105 -12 0 -15 17 -15 90 l0 90 -55 0 -55 0 0 -90 0 -90
-120 0 -120 0 0 104 c0 101 1 105 23 108 18 2 282 2 340 -1z m-33 -131 l0 -80
-35 0 -35 0 0 80 0 80 35 0 35 0 0 -80z"/>
<path d="M90 145 l0 -75 90 0 90 0 0 75 0 75 -90 0 -90 0 0 -75z m160 0 l0
-55 -70 0 -70 0 0 55 0 55 70 0 70 0 0 -55z"/>
</g>
</svg>
